<?xml version="1.0" encoding="UTF-8"?>
<svg xmlns="http://www.w3.org/2000/svg" xmlns:xlink="http://www.w3.org/1999/xlink" width="125pt" height="100pt" viewBox="0 0 125 100" version="1.1">
<g id="surface1">
<path style=" stroke:none;fill-rule:nonzero;fill:rgb(86.666667%,30.196078%,25.882353%);fill-opacity:1;" d="M 103.246094 89.511719 C 103.257812 89.496094 103.269531 89.480469 103.277344 89.464844 C 103.304688 89.398438 103.339844 89.335938 103.382812 89.28125 L 106.835938 84.433594 L 109.683594 80.445312 L 114.539062 80.445312 L 114.195312 80.925781 L 113.585938 81.785156 L 111.691406 84.4375 L 107.632812 90.125 L 111.394531 97.695312 C 111.546875 98.003906 111.285156 98.445312 110.8125 98.683594 L 109 99.589844 C 108.816406 99.679688 108.621094 99.730469 108.417969 99.734375 C 108.164062 99.734375 107.949219 99.640625 107.859375 99.457031 L 103.183594 90.046875 C 103.109375 89.871094 103.132812 89.667969 103.246094 89.511719 Z M 103.246094 89.511719 "/>
<path style=" stroke:none;fill-rule:nonzero;fill:rgb(18.431373%,18.039216%,25.490196%);fill-opacity:1;" d="M 109.78125 89.222656 L 104.890625 87.398438 C 104.429688 87.226562 104.191406 86.714844 104.363281 86.25 L 105.796875 82.382812 C 105.96875 81.917969 106.484375 81.683594 106.945312 81.855469 L 111.835938 83.675781 C 112.296875 83.847656 112.535156 84.363281 112.363281 84.824219 L 110.925781 88.695312 C 110.757812 89.15625 110.242188 89.394531 109.78125 89.222656 Z M 109.78125 89.222656 "/>
<path style=" stroke:none;fill-rule:nonzero;fill:rgb(100%,100%,100%);fill-opacity:1;" d="M 105.621094 87.070312 C 105.589844 87.070312 105.554688 87.066406 105.523438 87.054688 C 105.382812 87 105.3125 86.839844 105.363281 86.699219 L 107.160156 81.9375 C 107.214844 81.792969 107.371094 81.722656 107.515625 81.773438 C 107.65625 81.828125 107.726562 81.988281 107.675781 82.128906 L 105.878906 86.890625 C 105.839844 87 105.734375 87.070312 105.621094 87.070312 Z M 105.621094 87.070312 "/>
<path style=" stroke:none;fill-rule:nonzero;fill:rgb(86.666667%,30.196078%,25.882353%);fill-opacity:1;" d="M 113.511719 99.027344 L 113.511719 81.824219 C 113.511719 81.808594 113.511719 81.792969 113.515625 81.777344 C 113.53125 81.367188 113.789062 81.007812 114.167969 80.863281 C 114.289062 80.816406 114.414062 80.792969 114.542969 80.792969 L 116.570312 80.792969 C 117.136719 80.792969 117.597656 81.253906 117.597656 81.824219 L 117.597656 99.027344 C 117.597656 99.59375 117.136719 100.058594 116.570312 100.058594 L 114.542969 100.058594 C 113.972656 100.058594 113.511719 99.59375 113.511719 99.027344 Z M 113.511719 99.027344 "/>
<path style=" stroke:none;fill-rule:nonzero;fill:rgb(18.431373%,18.039216%,25.490196%);fill-opacity:1;" d="M 112.414062 88.289062 L 112.414062 84.160156 C 112.414062 83.667969 112.8125 83.269531 113.304688 83.265625 L 118.523438 83.265625 C 119.015625 83.269531 119.414062 83.667969 119.414062 84.160156 L 119.414062 88.289062 C 119.414062 88.785156 119.015625 89.183594 118.523438 89.183594 L 113.304688 89.183594 C 112.8125 89.183594 112.414062 88.785156 112.414062 88.289062 Z M 112.414062 88.289062 "/>
<path style=" stroke:none;fill-rule:nonzero;fill:rgb(100%,100%,100%);fill-opacity:1;" d="M 116.40625 88.75 C 116.253906 88.75 116.128906 88.625 116.128906 88.472656 L 116.128906 83.382812 C 116.128906 83.230469 116.253906 83.105469 116.40625 83.105469 C 116.554688 83.105469 116.679688 83.230469 116.679688 83.382812 L 116.679688 88.472656 C 116.679688 88.625 116.554688 88.75 116.40625 88.75 Z M 116.40625 88.75 "/>
<path style=" stroke:none;fill-rule:nonzero;fill:rgb(86.666667%,30.196078%,25.882353%);fill-opacity:1;" d="M 107.023438 68.738281 L 92.011719 60.984375 C 91.507812 60.722656 91.308594 60.097656 91.570312 59.59375 L 92.496094 57.789062 C 92.757812 57.28125 93.378906 57.082031 93.882812 57.34375 L 108.894531 65.101562 C 108.96875 65.140625 109.039062 65.1875 109.105469 65.246094 C 109.457031 65.554688 109.554688 66.070312 109.339844 66.492188 L 108.410156 68.296875 C 108.285156 68.539062 108.066406 68.722656 107.808594 68.808594 C 107.707031 68.839844 107.597656 68.855469 107.492188 68.855469 C 107.328125 68.855469 107.167969 68.816406 107.023438 68.738281 Z M 107.023438 68.738281 "/>
<path style=" stroke:none;fill-rule:nonzero;fill:rgb(18.431373%,18.039216%,25.490196%);fill-opacity:1;" d="M 107.3125 69.1875 L 100.015625 66.296875 C 99.507812 66.042969 99.304688 65.421875 99.558594 64.914062 L 101.222656 61.476562 C 101.34375 61.230469 101.558594 61.046875 101.816406 60.960938 C 102.078125 60.875 102.367188 60.894531 102.613281 61.023438 L 109.203125 65.027344 C 109.230469 65.039062 109.253906 65.058594 109.273438 65.078125 C 109.441406 65.226562 109.523438 65.589844 109.59375 65.882812 L 109.601562 65.929688 C 109.621094 66.007812 109.636719 66.074219 109.652344 66.121094 L 109.660156 66.140625 C 109.664062 66.160156 109.671875 66.179688 109.675781 66.199219 C 109.734375 66.4375 109.707031 66.6875 109.59375 66.90625 L 108.6875 68.722656 C 108.507812 69.070312 108.152344 69.289062 107.761719 69.292969 C 107.605469 69.292969 107.453125 69.257812 107.3125 69.1875 Z M 107.3125 69.1875 "/>
<path style=" stroke:none;fill-rule:nonzero;fill:rgb(86.666667%,30.196078%,25.882353%);fill-opacity:1;" d="M 120.046875 52.398438 C 120.046875 56.46875 116.757812 59.765625 112.699219 59.765625 C 108.640625 59.765625 105.351562 56.46875 105.351562 52.398438 C 105.351562 48.332031 108.640625 45.035156 112.699219 45.035156 C 116.757812 45.035156 120.046875 48.332031 120.046875 52.398438 Z M 120.046875 52.398438 "/>
<path style=" stroke:none;fill-rule:nonzero;fill:rgb(18.431373%,18.039216%,25.490196%);fill-opacity:1;" d="M 113.128906 56.367188 L 113.136719 56.09375 C 112.625 56.078125 112.171875 56.046875 111.835938 55.800781 C 111.640625 55.648438 111.523438 55.421875 111.507812 55.175781 C 111.496094 55.023438 111.554688 54.878906 111.667969 54.777344 C 111.890625 54.585938 112.253906 54.648438 112.515625 54.769531 L 112.742188 54.875 L 112.308594 51.683594 L 112.035156 51.71875 L 112.40625 54.433594 C 112.046875 54.328125 111.714844 54.375 111.488281 54.566406 C 111.3125 54.722656 111.21875 54.949219 111.234375 55.183594 C 111.25 55.515625 111.410156 55.820312 111.671875 56.019531 C 112.109375 56.339844 112.671875 56.355469 113.128906 56.367188 Z M 113.128906 56.367188 "/>
<path style=" stroke:none;fill-rule:nonzero;fill:rgb(18.431373%,18.039216%,25.490196%);fill-opacity:1;" d="M 109.210938 51.953125 L 110.691406 51.953125 L 110.691406 52.230469 L 109.210938 52.230469 Z M 109.210938 51.953125 "/>
<path style=" stroke:none;fill-rule:nonzero;fill:rgb(18.431373%,18.039216%,25.490196%);fill-opacity:1;" d="M 113.878906 51.953125 L 115.359375 51.953125 L 115.359375 52.230469 L 113.878906 52.230469 Z M 113.878906 51.953125 "/>
<path style=" stroke:none;fill-rule:nonzero;fill:rgb(18.431373%,18.039216%,25.490196%);fill-opacity:1;" d="M 106 84.503906 C 105.515625 84.472656 105.136719 83.675781 105.136719 82.671875 L 105.136719 69.78125 C 105.136719 69.15625 105.214844 68.53125 105.371094 67.921875 C 105.425781 67.703125 105.492188 67.484375 105.570312 67.273438 C 106.03125 65.984375 106.839844 64.847656 107.90625 63.988281 C 108.027344 63.890625 108.152344 63.796875 108.28125 63.707031 C 108.902344 63.265625 109.589844 62.925781 110.316406 62.695312 C 110.296875 62.605469 110.285156 62.511719 110.285156 62.421875 C 110.285156 61.699219 110.867188 61.113281 111.589844 61.113281 L 113.511719 61.113281 C 114.230469 61.113281 114.816406 61.699219 114.816406 62.421875 C 114.816406 62.511719 114.804688 62.605469 114.785156 62.695312 C 117.867188 63.675781 119.964844 66.542969 119.964844 69.78125 L 119.964844 82.671875 C 119.964844 83.699219 119.574219 84.503906 119.070312 84.503906 L 106.027344 84.503906 C 106.019531 84.507812 106.007812 84.503906 106 84.503906 Z M 106 84.503906 "/>
<path style=" stroke:none;fill-rule:nonzero;fill:rgb(86.666667%,30.196078%,25.882353%);fill-opacity:1;" d="M 114.492188 85.679688 C 114.40625 85.527344 114.359375 85.359375 114.355469 85.1875 L 114.066406 68.261719 C 114.0625 67.988281 114.164062 67.726562 114.355469 67.527344 C 114.546875 67.332031 114.804688 67.21875 115.078125 67.210938 L 117.105469 67.179688 C 117.632812 67.167969 118.082031 67.5625 118.144531 68.089844 C 118.148438 68.125 118.152344 68.15625 118.152344 68.191406 L 118.441406 85.117188 C 118.449219 85.6875 117.996094 86.15625 117.429688 86.167969 L 115.402344 86.199219 C 115.027344 86.207031 114.675781 86.007812 114.492188 85.679688 Z M 114.492188 85.679688 "/>
<path style=" stroke:none;fill-rule:nonzero;fill:rgb(18.431373%,18.039216%,25.490196%);fill-opacity:1;" d="M 113.640625 74.058594 C 113.5625 73.921875 113.515625 73.769531 113.507812 73.613281 L 113.59375 65.773438 C 113.550781 65.207031 113.972656 64.710938 114.539062 64.664062 L 116.558594 64.507812 C 116.804688 64.488281 117.050781 64.558594 117.25 64.703125 C 117.269531 64.71875 117.289062 64.738281 117.3125 64.75 C 117.359375 64.792969 117.414062 64.832031 117.46875 64.871094 L 117.511719 64.902344 C 117.800781 65.105469 118.132812 65.339844 118.148438 65.566406 L 119.363281 73.21875 C 119.382812 73.4375 119.328125 73.65625 119.210938 73.839844 C 119.183594 73.886719 119.152344 73.929688 119.121094 73.96875 C 119.089844 74.003906 119.054688 74.039062 119.019531 74.070312 C 118.851562 74.222656 118.640625 74.3125 118.414062 74.328125 L 114.613281 74.574219 C 114.214844 74.605469 113.835938 74.402344 113.640625 74.058594 Z M 113.640625 74.058594 "/>
<path style=" stroke:none;fill-rule:nonzero;fill:rgb(100%,100%,100%);fill-opacity:1;" d="M 106.519531 82.695312 C 106.367188 82.695312 106.246094 82.570312 106.246094 82.417969 L 106.246094 69.070312 C 106.246094 68.917969 106.367188 68.796875 106.519531 68.796875 C 106.671875 68.796875 106.792969 68.917969 106.792969 69.070312 L 106.792969 82.417969 C 106.792969 82.570312 106.671875 82.695312 106.519531 82.695312 Z M 106.519531 82.695312 "/>
<path style=" stroke:none;fill-rule:nonzero;fill:rgb(18.431373%,18.039216%,25.490196%);fill-opacity:1;" d="M 119.363281 50.652344 L 106.597656 45.972656 C 106.3125 45.867188 106.167969 45.550781 106.269531 45.265625 L 106.3125 45.058594 C 107.3125 42.328125 110.613281 40.609375 113.339844 41.609375 L 117.269531 43.050781 C 119.992188 44.046875 121.175781 47.28125 120.179688 50.011719 L 120.066406 50.324219 C 119.960938 50.609375 119.648438 50.753906 119.363281 50.652344 Z M 119.363281 50.652344 "/>
<path style=" stroke:none;fill-rule:nonzero;fill:rgb(18.431373%,18.039216%,25.490196%);fill-opacity:1;" d="M 120.050781 50.910156 C 102.257812 51.570312 100.703125 49.328125 106.125 45.804688 L 107.273438 43.683594 L 120.453125 48.5 Z M 120.050781 50.910156 "/>
<path style=" stroke:none;fill-rule:nonzero;fill:rgb(18.431373%,18.039216%,25.490196%);fill-opacity:1;" d="M 115.621094 41.785156 C 115.003906 41.597656 114.425781 41.710938 114.328125 42.039062 C 114.226562 42.367188 114.648438 42.785156 115.265625 42.96875 C 115.882812 43.15625 116.464844 43.042969 116.5625 42.714844 C 116.660156 42.386719 116.238281 41.96875 115.621094 41.785156 Z M 115.621094 41.785156 "/>
<path style=" stroke:none;fill-rule:nonzero;fill:rgb(90.196078%,90.196078%,90.196078%);fill-opacity:1;" d="M 38.933594 0 C 26.179688 0 15.800781 10.398438 15.800781 23.1875 C 15.796875 26.457031 16.488281 29.695312 17.828125 32.679688 C 21.453125 40.742188 29.550781 46.371094 38.933594 46.371094 C 51.707031 46.363281 62.058594 35.988281 62.066406 23.1875 C 62.066406 10.398438 51.6875 0 38.933594 0 Z M 58.074219 32.507812 C 54.507812 39.847656 47.082031 44.507812 38.933594 44.515625 C 29.914062 44.515625 22.1875 38.863281 19.097656 30.910156 C 18.136719 28.445312 17.648438 25.828125 17.652344 23.1875 C 17.652344 11.425781 27.199219 1.855469 38.933594 1.855469 C 50.667969 1.855469 60.21875 11.425781 60.21875 23.1875 C 60.21875 26.414062 59.488281 29.605469 58.074219 32.507812 Z M 58.074219 32.507812 "/>
<path style=" stroke:none;fill-rule:nonzero;fill:rgb(86.666667%,30.196078%,25.882353%);fill-opacity:1;" d="M 38.933594 46.441406 C 29.992188 46.433594 21.847656 41.28125 17.992188 33.191406 C 17.839844 32.871094 17.867188 32.492188 18.066406 32.199219 L 18.078125 32.179688 C 18.277344 31.890625 18.617188 31.730469 18.96875 31.757812 C 19.320312 31.785156 19.628906 31.996094 19.777344 32.316406 C 23.289062 39.6875 30.808594 44.445312 38.933594 44.445312 C 46.492188 44.429688 53.472656 40.398438 57.277344 33.855469 C 57.457031 33.546875 57.785156 33.359375 58.136719 33.363281 C 58.488281 33.359375 58.8125 33.550781 58.984375 33.855469 L 58.996094 33.875 C 59.167969 34.183594 59.167969 34.5625 58.988281 34.867188 C 54.824219 42.015625 47.191406 46.417969 38.933594 46.441406 Z M 38.933594 46.441406 "/>
<path style=" stroke:none;fill-rule:nonzero;fill:rgb(90.196078%,90.196078%,90.196078%);fill-opacity:1;" d="M 33.71875 25.304688 C 35.015625 25.296875 36.136719 26.210938 36.398438 27.484375 C 36.65625 28.757812 35.980469 30.035156 34.785156 30.539062 C 33.589844 31.039062 32.207031 30.625 31.484375 29.546875 C 30.761719 28.464844 30.898438 27.027344 31.816406 26.105469 C 32.320312 25.59375 33.003906 25.308594 33.71875 25.304688 M 33.71875 24.148438 C 31.589844 24.144531 29.863281 25.875 29.863281 28.011719 C 29.859375 30.144531 31.585938 31.875 33.714844 31.875 C 35.847656 31.878906 37.574219 30.148438 37.574219 28.015625 C 37.574219 25.878906 35.847656 24.148438 33.71875 24.148438 Z M 41.753906 18.621094 C 42.480469 18.625 43.074219 18.035156 43.078125 17.308594 C 43.078125 17.304688 43.078125 17.300781 43.078125 17.292969 C 43.082031 16.574219 42.507812 15.984375 41.789062 15.976562 C 41.78125 15.976562 41.769531 15.976562 41.761719 15.976562 C 41.035156 15.972656 40.441406 16.558594 40.433594 17.285156 C 40.425781 18.015625 41.011719 18.613281 41.738281 18.621094 C 41.742188 18.621094 41.75 18.621094 41.753906 18.621094 Z M 44.519531 25.304688 C 45.816406 25.296875 46.9375 26.210938 47.195312 27.484375 C 47.457031 28.757812 46.78125 30.035156 45.585938 30.539062 C 44.390625 31.039062 43.003906 30.625 42.28125 29.546875 C 41.558594 28.464844 41.699219 27.027344 42.613281 26.105469 C 43.117188 25.59375 43.804688 25.308594 44.519531 25.304688 M 44.519531 24.148438 C 42.390625 24.148438 40.664062 25.875 40.664062 28.011719 C 40.664062 30.144531 42.390625 31.871094 44.519531 31.871094 C 46.648438 31.871094 48.371094 30.144531 48.371094 28.011719 C 48.371094 25.875 46.648438 24.148438 44.519531 24.148438 Z M 44.519531 24.148438 "/>
<path style=" stroke:none;fill-rule:nonzero;fill:rgb(90.196078%,90.196078%,90.196078%);fill-opacity:1;" d="M 43.746094 21.277344 L 41.761719 21.277344 L 40.542969 18.789062 C 40.34375 18.4375 39.992188 18.195312 39.589844 18.140625 C 39.1875 18.089844 38.785156 18.226562 38.5 18.515625 L 35.539062 21.375 C 35.296875 21.625 35.15625 21.957031 35.152344 22.304688 C 35.152344 23.023438 35.675781 23.28125 35.917969 23.425781 C 37.796875 24.511719 38.457031 24.632812 38.457031 25.171875 L 38.457031 27.902344 C 38.457031 28.269531 38.753906 28.566406 39.117188 28.566406 C 39.484375 28.566406 39.78125 28.269531 39.78125 27.902344 L 39.78125 24.175781 C 39.78125 23.628906 38.523438 23.183594 37.785156 22.601562 L 39.804688 20.46875 C 40.578125 21.648438 40.933594 22.601562 41.375 22.601562 L 43.746094 22.601562 C 44.109375 22.601562 44.40625 22.308594 44.40625 21.941406 C 44.410156 21.574219 44.113281 21.277344 43.75 21.277344 Z M 43.746094 21.277344 "/>
<path style=" stroke:none;fill-rule:nonzero;fill:rgb(90.196078%,90.196078%,90.196078%);fill-opacity:1;" d="M 20.328125 58.875 C 19.757812 58.875 19.285156 60.535156 19.195312 62.714844 L 8.242188 62.714844 C 8.148438 60.535156 7.679688 58.875 7.109375 58.875 C 6.472656 58.875 5.960938 60.9375 5.960938 63.480469 C 5.960938 66.027344 6.472656 68.089844 7.109375 68.089844 C 7.679688 68.089844 8.148438 66.429688 8.242188 64.25 L 19.195312 64.25 C 19.285156 66.429688 19.757812 68.089844 20.328125 68.089844 C 20.960938 68.089844 21.476562 66.027344 21.476562 63.480469 C 21.476562 60.9375 20.960938 58.875 20.328125 58.875 Z M 20.328125 58.875 "/>
<path style=" stroke:none;fill-rule:nonzero;fill:rgb(90.196078%,90.196078%,90.196078%);fill-opacity:1;" d="M 25.664062 56.679688 C 22.304688 50.644531 14.996094 48.054688 8.597656 50.628906 C 2.199219 53.199219 -1.292969 60.140625 0.445312 66.824219 C 2.179688 73.511719 8.605469 77.863281 15.441406 76.984375 C 22.277344 76.105469 27.402344 70.273438 27.398438 63.363281 C 27.398438 61.023438 26.800781 58.722656 25.664062 56.679688 Z M 13.695312 75.996094 C 6.78125 75.960938 1.199219 70.324219 1.21875 63.394531 C 1.234375 56.460938 6.847656 50.855469 13.761719 50.855469 C 20.675781 50.855469 26.285156 56.464844 26.304688 63.394531 C 26.320312 70.324219 20.738281 75.960938 13.824219 75.996094 C 13.78125 75.996094 13.738281 75.996094 13.695312 75.996094 Z M 13.695312 75.996094 "/>
<path style=" stroke:none;fill-rule:nonzero;fill:rgb(86.666667%,30.196078%,25.882353%);fill-opacity:1;" d="M 13.703125 77.164062 C 11.09375 77.167969 8.535156 76.421875 6.332031 75.019531 C 6.21875 74.949219 6.136719 74.847656 6.085938 74.722656 L 6.082031 74.707031 C 5.984375 74.457031 6.058594 74.175781 6.265625 74.007812 C 6.464844 73.839844 6.753906 73.820312 6.976562 73.964844 C 11.792969 77.039062 18.078125 76.457031 22.253906 72.550781 C 26.429688 68.644531 27.441406 62.402344 24.714844 57.375 C 24.585938 57.144531 24.625 56.855469 24.804688 56.667969 C 24.988281 56.46875 25.273438 56.414062 25.515625 56.53125 L 25.53125 56.539062 C 25.648438 56.59375 25.746094 56.683594 25.808594 56.800781 C 28.117188 61.074219 28.011719 66.25 25.53125 70.425781 C 23.050781 74.601562 18.558594 77.164062 13.710938 77.164062 Z M 13.703125 77.164062 "/>
<path style=" stroke:none;fill-rule:nonzero;fill:rgb(90.196078%,90.196078%,90.196078%);fill-opacity:1;" d="M 64.164062 49.632812 C 56.597656 49.628906 50.457031 55.777344 50.457031 63.363281 C 50.457031 70.949219 56.59375 77.101562 64.160156 77.097656 L 64.164062 77.097656 C 64.253906 77.097656 64.34375 77.097656 64.429688 77.09375 C 71.945312 76.949219 77.941406 70.765625 77.867188 63.234375 C 77.796875 55.699219 71.683594 49.632812 64.164062 49.632812 Z M 66.957031 75.6875 C 62.238281 76.761719 57.324219 75.03125 54.308594 71.238281 C 51.292969 67.445312 50.710938 62.253906 52.808594 57.882812 C 54.90625 53.515625 59.320312 50.734375 64.160156 50.730469 L 64.164062 50.730469 C 70.585938 50.730469 75.980469 55.5625 76.695312 61.957031 C 77.410156 68.351562 73.21875 74.261719 66.957031 75.6875 Z M 66.957031 75.6875 "/>
<path style=" stroke:none;fill-rule:nonzero;fill:rgb(86.666667%,30.196078%,25.882353%);fill-opacity:1;" d="M 64.164062 77.167969 C 57.128906 77.167969 51.222656 71.847656 50.472656 64.835938 C 49.722656 57.820312 54.371094 51.371094 61.25 49.875 C 61.332031 49.859375 61.417969 49.859375 61.5 49.871094 L 61.527344 49.878906 C 61.8125 49.933594 62.015625 50.179688 62.019531 50.472656 C 62.023438 50.761719 61.824219 51.011719 61.539062 51.074219 C 55.269531 52.421875 51.023438 58.296875 51.699219 64.6875 C 52.375 71.078125 57.753906 75.929688 64.167969 75.929688 C 64.289062 75.929688 64.40625 75.929688 64.527344 75.925781 C 64.800781 75.914062 65.042969 76.101562 65.105469 76.371094 C 65.167969 76.632812 65.039062 76.902344 64.792969 77.007812 C 64.710938 77.046875 64.628906 77.082031 64.550781 77.117188 C 64.480469 77.148438 64.40625 77.164062 64.332031 77.167969 C 64.277344 77.167969 64.222656 77.167969 64.164062 77.167969 Z M 64.164062 77.167969 "/>
<path style=" stroke:none;fill-rule:nonzero;fill:rgb(90.196078%,90.196078%,90.196078%);fill-opacity:1;" d="M 70.925781 62.78125 C 70.175781 62.746094 69.492188 63.210938 69.253906 63.925781 L 67.90625 63.925781 L 66.917969 60.957031 C 66.84375 60.726562 66.632812 60.574219 66.390625 60.574219 L 66.382812 60.574219 C 66.136719 60.578125 65.925781 60.742188 65.859375 60.976562 L 64.316406 66.375 L 62.503906 55.457031 C 62.460938 55.195312 62.238281 55 61.976562 54.992188 C 61.714844 54.980469 61.480469 55.15625 61.414062 55.410156 L 59.574219 63.925781 L 57.515625 63.925781 C 57.207031 63.925781 56.960938 64.175781 56.960938 64.480469 C 56.960938 64.789062 57.207031 65.039062 57.515625 65.039062 L 60.011719 65.039062 C 60.265625 65.039062 60.488281 64.867188 60.550781 64.617188 L 61.847656 58.285156 L 63.628906 68.988281 C 63.667969 69.246094 63.882812 69.4375 64.144531 69.449219 L 64.175781 69.449219 C 64.421875 69.449219 64.640625 69.285156 64.710938 69.046875 L 66.433594 63.011719 L 66.976562 64.65625 C 67.054688 64.882812 67.265625 65.035156 67.503906 65.039062 L 69.277344 65.039062 C 69.570312 65.816406 70.394531 66.261719 71.203125 66.078125 C 72.015625 65.894531 72.566406 65.136719 72.496094 64.308594 C 72.425781 63.476562 71.753906 62.828125 70.925781 62.78125 Z M 70.925781 62.78125 "/>
<path style=" stroke:none;fill-rule:nonzero;fill:rgb(24.705882%,23.921569%,33.72549%);fill-opacity:1;" d="M 124.925781 100.101562 L 99.800781 100.101562 C 99.722656 100.101562 99.664062 100.039062 99.664062 99.960938 C 99.664062 99.886719 99.722656 99.824219 99.800781 99.824219 L 124.925781 99.824219 C 125 99.824219 125.0625 99.886719 125.0625 99.960938 C 125.0625 100.039062 125 100.101562 124.925781 100.101562 Z M 124.925781 100.101562 "/>
</g>
</svg>
