<?xml version="1.0" encoding="UTF-8"?>
<svg xmlns="http://www.w3.org/2000/svg" xmlns:xlink="http://www.w3.org/1999/xlink" width="141pt" height="120pt" viewBox="0 0 141 120" version="1.1">
<g id="surface1">
<path style=" stroke:none;fill-rule:nonzero;fill:rgb(90.196078%,90.196078%,90.196078%);fill-opacity:1;" d="M 131.523438 104.976562 C 131.523438 104.976562 110.992188 95.445312 118.207031 88.839844 C 125.417969 82.234375 131.523438 104.976562 131.523438 104.976562 Z M 131.523438 104.976562 "/>
<path style=" stroke:none;fill-rule:nonzero;fill:rgb(90.196078%,90.196078%,90.196078%);fill-opacity:1;" d="M 131.167969 107.199219 C 131.167969 107.199219 121.730469 75.941406 135.628906 77.433594 C 149.527344 78.929688 131.167969 107.199219 131.167969 107.199219 Z M 131.167969 107.199219 "/>
<path style=" stroke:none;fill-rule:nonzero;fill:rgb(90.196078%,90.196078%,90.196078%);fill-opacity:1;" d="M 124.289062 104.429688 L 124.683594 109.65625 L 124.691406 109.746094 C 124.691406 110.5625 124.730469 111.378906 124.8125 112.191406 C 125.347656 117.523438 127.660156 119.957031 130.359375 119.957031 C 133.0625 119.957031 135.269531 117.523438 135.808594 112.191406 C 135.890625 111.378906 135.929688 110.5625 135.929688 109.746094 L 135.9375 109.671875 L 135.9375 109.65625 L 136.335938 104.429688 Z M 124.289062 104.429688 "/>
<path style=" stroke:none;fill-rule:nonzero;fill:rgb(100%,100%,100%);fill-opacity:1;" d="M 135.9375 109.65625 L 135.9375 109.671875 L 135.929688 109.746094 C 135.929688 110.5625 135.890625 111.378906 135.808594 112.191406 L 124.8125 112.191406 C 124.730469 111.378906 124.691406 110.5625 124.691406 109.746094 L 124.683594 109.65625 Z M 135.9375 109.65625 "/>
<path style=" stroke:none;fill-rule:nonzero;fill:rgb(90.196078%,90.196078%,90.196078%);fill-opacity:1;" d="M 15.507812 109.527344 C 15.507812 109.527344 7.871094 105.980469 10.554688 103.527344 C 13.234375 101.070312 15.507812 109.527344 15.507812 109.527344 Z M 15.507812 109.527344 "/>
<path style=" stroke:none;fill-rule:nonzero;fill:rgb(90.196078%,90.196078%,90.196078%);fill-opacity:1;" d="M 10.449219 109.152344 L 10.726562 112.789062 L 10.730469 112.851562 C 10.730469 113.421875 10.757812 113.988281 10.816406 114.554688 C 11.1875 118.265625 12.796875 119.957031 14.675781 119.957031 C 16.554688 119.957031 18.089844 118.265625 18.464844 114.554688 C 18.519531 113.988281 18.550781 113.421875 18.550781 112.851562 L 18.550781 112.800781 L 18.554688 112.789062 L 18.832031 109.152344 Z M 10.449219 109.152344 "/>
<path style=" stroke:none;fill-rule:nonzero;fill:rgb(100%,72.54902%,72.54902%);fill-opacity:1;" d="M 95.691406 56.457031 C 96.273438 56.050781 96.578125 55.34375 96.472656 54.636719 C 96.367188 53.929688 95.875 53.339844 95.195312 53.125 L 90.921875 51.75 L 88.574219 53.800781 L 93.757812 56.570312 C 94.371094 56.902344 95.117188 56.855469 95.691406 56.457031 Z M 95.691406 56.457031 "/>
<path style=" stroke:none;fill-rule:nonzero;fill:rgb(90.196078%,90.196078%,90.196078%);fill-opacity:1;" d="M 88.5 55.140625 L 91.320312 51.847656 L 80.828125 40.269531 L 75.992188 28.976562 C 75.339844 27.441406 73.6875 26.597656 72.070312 26.96875 C 71.035156 27.207031 70.160156 27.917969 69.714844 28.894531 C 69.265625 29.867188 69.292969 30.996094 69.78125 31.949219 L 76.085938 44.195312 Z M 88.5 55.140625 "/>
<path style=" stroke:none;fill-rule:nonzero;fill:rgb(24.705882%,23.921569%,33.72549%);fill-opacity:1;" d="M 95.234375 98.777344 L 94.691406 97.929688 L 93.695312 97.929688 L 93.695312 97.5625 L 94.894531 97.5625 L 95.542969 98.574219 Z M 95.234375 98.777344 "/>
<path style=" stroke:none;fill-rule:nonzero;fill:rgb(24.705882%,23.921569%,33.72549%);fill-opacity:1;" d="M 92.996094 97.929688 L 90.894531 97.929688 L 90.894531 97.5625 L 92.996094 97.5625 Z M 90.191406 97.929688 L 88.09375 97.929688 L 88.09375 97.5625 L 90.191406 97.5625 Z M 87.390625 97.929688 L 85.289062 97.929688 L 85.289062 97.5625 L 87.390625 97.5625 Z M 84.585938 97.929688 L 82.484375 97.929688 L 82.484375 97.5625 L 84.585938 97.5625 Z M 81.785156 97.929688 L 79.683594 97.929688 L 79.683594 97.5625 L 81.785156 97.5625 Z M 78.984375 97.929688 L 77.035156 97.929688 L 76.855469 97.90625 L 76.90625 97.539062 L 77.070312 97.5625 L 78.984375 97.5625 Z M 76.164062 97.8125 L 74.082031 97.53125 L 74.128906 97.167969 L 76.210938 97.445312 Z M 73.382812 97.441406 L 71.300781 97.164062 L 71.347656 96.796875 L 73.433594 97.074219 Z M 70.605469 97.070312 L 68.523438 96.789062 L 68.574219 96.425781 L 70.65625 96.703125 Z M 67.832031 96.699219 L 65.746094 96.417969 L 65.796875 96.050781 L 67.875 96.332031 Z M 67.832031 96.699219 "/>
<path style=" stroke:none;fill-rule:nonzero;fill:rgb(24.705882%,23.921569%,33.72549%);fill-opacity:1;" d="M 64.136719 97.105469 L 63.773438 97.097656 L 63.8125 95.785156 L 65.097656 95.957031 L 65.050781 96.324219 L 64.164062 96.207031 Z M 64.136719 97.105469 "/>
<path style=" stroke:none;fill-rule:nonzero;fill:rgb(24.705882%,23.921569%,33.72549%);fill-opacity:1;" d="M 63.859375 106.976562 L 63.492188 106.964844 L 63.5625 104.5 L 63.929688 104.507812 Z M 63.953125 103.6875 L 63.585938 103.675781 L 63.65625 101.207031 L 64.023438 101.21875 Z M 64.046875 100.398438 L 63.679688 100.386719 L 63.75 97.917969 L 64.113281 97.929688 Z M 64.046875 100.398438 "/>
<path style=" stroke:none;fill-rule:nonzero;fill:rgb(24.705882%,23.921569%,33.72549%);fill-opacity:1;" d="M 63.433594 109.097656 L 63.46875 107.785156 L 63.835938 107.796875 L 63.8125 108.699219 L 64.699219 108.628906 L 64.726562 108.996094 Z M 63.433594 109.097656 "/>
<path style=" stroke:none;fill-rule:nonzero;fill:rgb(24.705882%,23.921569%,33.72549%);fill-opacity:1;" d="M 65.429688 108.941406 L 65.402344 108.574219 L 67.5 108.410156 L 67.527344 108.777344 Z M 68.230469 108.722656 L 68.199219 108.355469 L 70.300781 108.191406 L 70.328125 108.558594 Z M 71.027344 108.5 L 71 108.136719 L 73.097656 107.972656 L 73.128906 108.335938 Z M 73.824219 108.285156 L 73.796875 107.914062 L 75.898438 107.75 L 75.925781 108.121094 Z M 76.625 108.0625 L 76.597656 107.695312 L 78.695312 107.535156 L 78.722656 107.898438 Z M 79.421875 107.84375 L 79.398438 107.476562 L 81.496094 107.3125 L 81.523438 107.679688 Z M 82.222656 107.625 L 82.195312 107.257812 L 84.292969 107.09375 L 84.320312 107.460938 Z M 85.019531 107.40625 L 84.992188 107.039062 L 87.09375 106.875 L 87.117188 107.242188 Z M 87.820312 107.1875 L 87.792969 106.820312 L 89.890625 106.65625 L 89.917969 107.023438 Z M 90.621094 106.964844 L 90.59375 106.601562 L 92.691406 106.4375 L 92.71875 106.804688 Z M 93.417969 106.75 L 93.390625 106.378906 L 95.488281 106.214844 L 95.515625 106.585938 Z M 96.214844 106.53125 L 96.1875 106.164062 L 98.285156 106 L 98.316406 106.363281 Z M 96.214844 106.53125 "/>
<path style=" stroke:none;fill-rule:nonzero;fill:rgb(24.705882%,23.921569%,33.72549%);fill-opacity:1;" d="M 99.015625 106.308594 L 98.988281 105.945312 L 99.777344 105.882812 L 99.347656 105.210938 L 99.652344 105.011719 L 100.414062 106.203125 Z M 99.015625 106.308594 "/>
<path style=" stroke:none;fill-rule:nonzero;fill:rgb(24.705882%,23.921569%,33.72549%);fill-opacity:1;" d="M 98.886719 104.496094 L 97.519531 102.351562 L 97.828125 102.148438 L 99.195312 104.296875 Z M 97.0625 101.636719 L 95.691406 99.492188 L 96 99.289062 L 97.371094 101.433594 Z M 97.0625 101.636719 "/>
<path style=" stroke:none;fill-rule:nonzero;fill:rgb(63.529412%,88.627451%,76.862745%);fill-opacity:1;" d="M 104.574219 101.710938 C 104.574219 108.632812 99.007812 114.242188 92.140625 114.242188 C 85.277344 114.242188 79.710938 108.632812 79.710938 101.710938 C 79.710938 94.789062 85.277344 89.175781 92.140625 89.175781 C 99.007812 89.175781 104.574219 94.789062 104.574219 101.710938 Z M 104.574219 101.710938 "/>
<path style=" stroke:none;fill-rule:nonzero;fill:rgb(24.705882%,23.921569%,33.72549%);fill-opacity:1;" d="M 102.378906 116.269531 L 84.191406 83.738281 L 80.167969 87.792969 L 98.082031 116.175781 Z M 102.378906 116.269531 "/>
<path style=" stroke:none;fill-rule:nonzero;fill:rgb(24.705882%,23.921569%,33.72549%);fill-opacity:1;" d="M 47.261719 115.441406 L 88.121094 73.695312 L 91.503906 80.421875 L 52.746094 117.285156 Z M 47.261719 115.441406 "/>
<path style=" stroke:none;fill-rule:nonzero;fill:rgb(24.705882%,23.921569%,33.72549%);fill-opacity:1;" d="M 72.125 102.722656 C 72.125 107.304688 68.4375 111.019531 63.894531 111.019531 C 59.351562 111.019531 55.667969 107.304688 55.667969 102.722656 C 55.667969 98.144531 59.351562 94.429688 63.894531 94.429688 C 68.4375 94.429688 72.125 98.144531 72.125 102.722656 Z M 72.125 102.722656 "/>
<path style=" stroke:none;fill-rule:nonzero;fill:rgb(63.529412%,88.627451%,76.862745%);fill-opacity:1;" d="M 52.925781 105.121094 C 52.824219 105.121094 52.746094 105.203125 52.746094 105.304688 L 52.746094 106.777344 C 52.746094 106.878906 52.824219 106.960938 52.925781 106.960938 L 57.5 106.960938 C 57.597656 106.960938 57.679688 106.878906 57.679688 106.777344 L 57.679688 105.304688 C 57.679688 105.203125 57.597656 105.121094 57.5 105.121094 Z M 52.925781 105.121094 "/>
<path style=" stroke:none;fill-rule:nonzero;fill:rgb(63.529412%,88.627451%,76.862745%);fill-opacity:1;" d="M 63.441406 84.570312 C 63.335938 84.570312 63.253906 84.652344 63.253906 84.753906 L 63.253906 86.226562 C 63.253906 86.328125 63.335938 86.410156 63.441406 86.410156 L 68.011719 86.410156 C 68.109375 86.410156 68.191406 86.328125 68.191406 86.226562 L 68.191406 84.753906 C 68.191406 84.652344 68.109375 84.570312 68.011719 84.570312 Z M 63.441406 84.570312 "/>
<path style=" stroke:none;fill-rule:nonzero;fill:rgb(24.705882%,23.921569%,33.72549%);fill-opacity:1;" d="M 85.652344 81.527344 L 80.898438 81.527344 L 80.898438 77.839844 L 82.726562 77.105469 L 85.652344 79.316406 Z M 85.652344 81.527344 "/>
<path style=" stroke:none;fill-rule:nonzero;fill:rgb(24.705882%,23.921569%,33.72549%);fill-opacity:1;" d="M 81.003906 76.40625 L 81.5 76.171875 L 82.4375 78.171875 L 81.941406 78.40625 Z M 81.003906 76.40625 "/>
<path style=" stroke:none;fill-rule:nonzero;fill:rgb(63.529412%,88.627451%,76.862745%);fill-opacity:1;" d="M 82.023438 73.777344 C 81.992188 73.777344 81.957031 73.789062 81.925781 73.808594 L 78.699219 75.902344 C 78.613281 75.957031 78.589844 76.070312 78.644531 76.15625 L 79.433594 77.394531 C 79.488281 77.480469 79.601562 77.507812 79.6875 77.453125 L 82.914062 75.359375 C 83 75.304688 83.027344 75.191406 82.972656 75.101562 L 82.179688 73.863281 C 82.15625 73.824219 82.113281 73.792969 82.066406 73.785156 C 82.050781 73.777344 82.039062 73.777344 82.023438 73.777344 Z M 82.023438 73.777344 "/>
<path style=" stroke:none;fill-rule:nonzero;fill:rgb(24.705882%,23.921569%,33.72549%);fill-opacity:1;" d="M 89.308594 81.160156 L 85.558594 62.820312 L 89.949219 62.082031 L 92.941406 76.855469 C 93.199219 77.941406 92.929688 79.089844 92.210938 79.941406 C 91.492188 80.792969 90.414062 81.246094 89.308594 81.160156 Z M 89.308594 81.160156 "/>
<path style=" stroke:none;fill-rule:nonzero;fill:rgb(24.705882%,23.921569%,33.72549%);fill-opacity:1;" d="M 103.117188 59.207031 L 98.777344 58.894531 C 98.660156 58.886719 98.550781 58.820312 98.492188 58.71875 C 98.429688 58.617188 98.417969 58.492188 98.464844 58.382812 L 104.773438 43.375 C 104.820312 43.261719 104.921875 43.179688 105.042969 43.15625 L 109.324219 42.386719 C 109.457031 42.363281 109.589844 42.414062 109.671875 42.515625 C 109.753906 42.617188 109.777344 42.757812 109.730469 42.882812 L 103.484375 58.972656 C 103.425781 59.125 103.277344 59.21875 103.117188 59.207031 Z M 103.117188 59.207031 "/>
<path style=" stroke:none;fill-rule:nonzero;fill:rgb(63.529412%,88.627451%,76.862745%);fill-opacity:1;" d="M 99.363281 57.753906 L 102.835938 58.121094 L 108.507812 43.742188 L 104.847656 44.296875 Z M 99.363281 57.753906 "/>
<path style=" stroke:none;fill-rule:nonzero;fill:rgb(24.705882%,23.921569%,33.72549%);fill-opacity:1;" d="M 61.519531 97.191406 L 56.949219 101.800781 L 50.367188 72.863281 L 54.023438 73.417969 Z M 61.519531 97.191406 "/>
<path style=" stroke:none;fill-rule:nonzero;fill:rgb(24.705882%,23.921569%,33.72549%);fill-opacity:1;" d="M 56.195312 73.375 L 55.40625 73.136719 C 53.851562 73.824219 52.164062 74.148438 50.472656 74.070312 C 49.710938 74.039062 49.109375 73.40625 49.117188 72.640625 C 49.117188 71.851562 49.753906 71.207031 50.539062 71.207031 L 57.433594 71.207031 C 57.824219 71.207031 58.136719 71.523438 58.136719 71.914062 C 58.136719 72.398438 57.910156 72.851562 57.527344 73.136719 C 57.144531 73.425781 56.652344 73.511719 56.195312 73.375 Z M 56.195312 73.375 "/>
<path style=" stroke:none;fill-rule:nonzero;fill:rgb(24.705882%,23.921569%,33.72549%);fill-opacity:1;" d="M 99.867188 55.28125 C 99.695312 55.28125 99.519531 55.335938 99.382812 55.445312 L 93.769531 59.773438 L 87.484375 60.597656 C 86.402344 60.742188 85.65625 61.925781 85.558594 63.003906 L 92.957031 61.972656 C 93.984375 61.871094 94.957031 61.449219 95.734375 60.769531 L 100.394531 56.703125 C 100.652344 56.480469 100.742188 56.125 100.625 55.804688 C 100.507812 55.488281 100.203125 55.28125 99.867188 55.28125 Z M 99.867188 55.28125 "/>
<path style=" stroke:none;fill-rule:nonzero;fill:rgb(24.705882%,23.921569%,33.72549%);fill-opacity:1;" d="M 97.125 52.515625 C 96.953125 52.515625 96.777344 52.574219 96.640625 52.679688 L 91.027344 57.007812 L 84.742188 57.832031 C 83.660156 57.976562 82.914062 59.160156 82.816406 60.242188 L 90.214844 59.207031 C 91.242188 59.105469 92.210938 58.683594 92.992188 58.003906 L 97.652344 53.9375 C 97.910156 53.714844 98 53.359375 97.882812 53.042969 C 97.765625 52.726562 97.460938 52.515625 97.125 52.515625 Z M 97.125 52.515625 "/>
<path style=" stroke:none;fill-rule:nonzero;fill:rgb(24.705882%,23.921569%,33.72549%);fill-opacity:1;" d="M 100.550781 63.648438 C 97.902344 63.644531 95.410156 62.371094 93.839844 60.21875 L 94.578125 59.675781 C 96.1875 61.890625 98.875 63.039062 101.578125 62.65625 C 104.273438 62.277344 106.550781 60.433594 107.496094 57.855469 C 108.441406 55.28125 107.90625 52.386719 106.101562 50.324219 L 106.789062 49.714844 C 108.953125 52.1875 109.480469 55.707031 108.136719 58.714844 C 106.789062 61.71875 103.824219 63.648438 100.550781 63.648438 Z M 100.550781 63.648438 "/>
<path style=" stroke:none;fill-rule:nonzero;fill:rgb(24.705882%,23.921569%,33.72549%);fill-opacity:1;" d="M 42.234375 115.347656 L 106.953125 115.347656 L 106.953125 119.957031 L 42.234375 119.957031 Z M 42.234375 115.347656 "/>
<path style=" stroke:none;fill-rule:nonzero;fill:rgb(100%,72.54902%,72.54902%);fill-opacity:1;" d="M 91.089844 61.199219 C 91.75 60.933594 92.203125 60.3125 92.253906 59.597656 C 92.308594 58.882812 91.957031 58.203125 91.34375 57.839844 L 87.480469 55.539062 L 84.738281 57.015625 L 89.183594 60.878906 C 89.710938 61.335938 90.445312 61.460938 91.089844 61.199219 Z M 91.089844 61.199219 "/>
<path style=" stroke:none;fill-rule:nonzero;fill:rgb(63.529412%,88.627451%,76.862745%);fill-opacity:1;" d="M 60.785156 77.472656 L 63.347656 78.949219 L 79.152344 67.222656 C 80.324219 66.414062 81.105469 65.148438 81.316406 63.734375 C 81.578125 61.933594 80.878906 60.128906 79.472656 58.984375 C 75.984375 56.125 71.667969 53.535156 67.09375 51.027344 L 60.332031 54.34375 C 63.117188 60.105469 66.214844 64.855469 70.753906 64.847656 Z M 60.785156 77.472656 "/>
<path style=" stroke:none;fill-rule:nonzero;fill:rgb(18.431373%,18.039216%,25.490196%);fill-opacity:1;" d="M 59.671875 81.226562 C 61.796875 83.394531 64.59375 84.949219 67.714844 86.199219 C 68.199219 86.394531 68.75 86.257812 69.089844 85.863281 C 69.511719 85.378906 69.488281 84.652344 69.042969 84.191406 L 67.019531 82.097656 L 65.796875 77.703125 C 63.167969 79.011719 61.445312 78.71875 61.105469 75.976562 L 59.453125 78.253906 C 58.792969 79.164062 58.882812 80.425781 59.671875 81.226562 Z M 59.671875 81.226562 "/>
<path style=" stroke:none;fill-rule:nonzero;fill:rgb(63.529412%,88.627451%,76.862745%);fill-opacity:1;" d="M 52.5625 100.695312 L 56.402344 100.878906 L 65.175781 55.355469 L 50.09375 50.472656 C 48.585938 56.148438 50.824219 65.4375 54.753906 76.367188 Z M 52.5625 100.695312 "/>
<path style=" stroke:none;fill-rule:nonzero;fill:rgb(100%,72.54902%,72.54902%);fill-opacity:1;" d="M 88.121094 19.507812 C 88.121094 22.867188 85.421875 25.589844 82.085938 25.589844 C 78.753906 25.589844 76.050781 22.867188 76.050781 19.507812 C 76.050781 16.152344 78.753906 13.425781 82.085938 13.425781 C 85.421875 13.425781 88.121094 16.152344 88.121094 19.507812 Z M 88.121094 19.507812 "/>
<path style=" stroke:none;fill-rule:nonzero;fill:rgb(100%,72.54902%,72.54902%);fill-opacity:1;" d="M 71.027344 26.972656 L 74.863281 29.738281 L 80.714844 23.839844 L 77.789062 20.152344 Z M 71.027344 26.972656 "/>
<path style=" stroke:none;fill-rule:nonzero;fill:rgb(90.196078%,90.196078%,90.196078%);fill-opacity:1;" d="M 49.453125 50.933594 C 54.1875 54.824219 59.359375 57.378906 65.726562 56.277344 C 67.648438 53.175781 69.070312 46.648438 71.484375 43.835938 C 76.757812 37.703125 79.375 32.234375 77.699219 27.25 C 76.074219 26.175781 76.144531 26.179688 74.957031 22.644531 C 65.65625 24.378906 56.652344 34.960938 49.453125 50.933594 Z M 49.453125 50.933594 "/>
<path style=" stroke:none;fill-rule:nonzero;fill:rgb(18.431373%,18.039216%,25.490196%);fill-opacity:1;" d="M 52.5 104.488281 C 55.230469 105.792969 58.386719 106.28125 61.75 106.378906 C 62.265625 106.390625 62.738281 106.074219 62.921875 105.585938 C 63.152344 104.984375 62.886719 104.3125 62.3125 104.03125 L 59.695312 102.765625 L 57.050781 99.0625 C 55.03125 101.199219 53.3125 101.519531 52.058594 99.0625 L 51.28125 101.773438 C 50.96875 102.859375 51.488281 104.007812 52.5 104.488281 Z M 52.5 104.488281 "/>
<path style=" stroke:none;fill-rule:nonzero;fill:rgb(90.196078%,90.196078%,90.196078%);fill-opacity:1;" d="M 84.371094 58.304688 L 87.84375 55.726562 L 80.167969 42.085938 L 77.945312 29.992188 C 77.644531 28.351562 76.222656 27.15625 74.5625 27.15625 C 73.5 27.15625 72.492188 27.65625 71.84375 28.503906 C 71.1875 29.355469 70.964844 30.460938 71.234375 31.5 L 74.683594 44.851562 Z M 84.371094 58.304688 "/>
<path style=" stroke:none;fill-rule:nonzero;fill:rgb(24.705882%,23.921569%,33.72549%);fill-opacity:1;" d="M 64.902344 86.226562 L 66.914062 86.226562 L 66.914062 97.285156 L 64.902344 97.285156 Z M 64.902344 86.226562 "/>
<path style=" stroke:none;fill-rule:nonzero;fill:rgb(18.431373%,18.039216%,25.490196%);fill-opacity:1;" d="M 86.863281 17.746094 C 87.339844 18.324219 88.078125 18.625 88.824219 18.535156 C 89.550781 18.417969 90.195312 17.796875 90.242188 17.058594 C 90.285156 16.417969 89.910156 15.832031 89.519531 15.328125 C 88.65625 14.21875 87.636719 13.242188 86.480469 12.4375 C 85.933594 12.054688 85.328125 11.703125 84.660156 11.660156 C 84.335938 11.640625 84.003906 11.699219 83.675781 11.683594 C 83.066406 11.65625 82.496094 11.394531 81.90625 11.257812 C 80.675781 10.980469 79.386719 11.253906 78.375 12.011719 C 78.042969 12.265625 77.742188 12.566406 77.476562 12.894531 C 76.746094 13.792969 76.257812 14.863281 76.058594 16.007812 C 75.738281 17.816406 76.136719 19.800781 75.273438 21.425781 C 76.285156 21.328125 77.097656 20.550781 78.058594 20.21875 C 78.773438 19.972656 79.546875 19.980469 80.261719 20.238281 C 80.441406 20.332031 80.648438 20.371094 80.851562 20.347656 C 81.019531 20.289062 81.167969 20.179688 81.277344 20.035156 L 83.117188 18.019531 C 83.492188 17.609375 83.917969 17.167969 84.46875 17.113281 C 84.792969 17.101562 85.125 17.164062 85.421875 17.304688 C 86.160156 17.585938 86.875 17.925781 87.554688 18.324219 "/>
<path style=" stroke:none;fill-rule:nonzero;fill:rgb(24.705882%,23.921569%,33.72549%);fill-opacity:1;" d="M 83.367188 59.871094 L 82.816406 60.242188 L 86.476562 63.925781 L 88.667969 61.898438 L 85.011719 58.953125 Z M 83.367188 59.871094 "/>
<path style=" stroke:none;fill-rule:nonzero;fill:rgb(90.196078%,90.196078%,90.196078%);fill-opacity:1;" d="M 0 0 L 45.277344 0 L 45.277344 47.230469 L 0 47.230469 Z M 0 0 "/>
<path style=" stroke:none;fill-rule:nonzero;fill:rgb(100%,100%,100%);fill-opacity:1;" d="M 2.414062 2.523438 L 42.859375 2.523438 L 42.859375 44.707031 L 2.414062 44.707031 Z M 2.414062 2.523438 "/>
<path style=" stroke:none;fill-rule:nonzero;fill:rgb(90.196078%,90.196078%,90.196078%);fill-opacity:1;" d="M 10.285156 45.441406 L 11.726562 45.441406 L 11.714844 44.859375 L 11.691406 43.5625 L 11.464844 30.230469 L 11.460938 30.167969 L 11.34375 23.351562 L 11.058594 6.792969 L 10.992188 6.792969 L 10.6875 23.476562 L 10.566406 30.171875 L 10.5625 30.230469 Z M 10.285156 45.441406 "/>
<path style=" stroke:none;fill-rule:nonzero;fill:rgb(90.196078%,90.196078%,90.196078%);fill-opacity:1;" d="M 14.695312 41.96875 L 15.226562 42.996094 L 11.382812 45.039062 L 10.847656 44.011719 Z M 14.695312 41.96875 "/>
<path style=" stroke:none;fill-rule:nonzero;fill:rgb(90.196078%,90.196078%,90.196078%);fill-opacity:1;" d="M 21.753906 1.261719 L 23.582031 1.261719 L 23.582031 45.863281 L 21.753906 45.863281 Z M 21.753906 1.261719 "/>
<path style=" stroke:none;fill-rule:nonzero;fill:rgb(90.196078%,90.196078%,90.196078%);fill-opacity:1;" d="M 0 22.644531 L 45.277344 22.644531 L 45.277344 24.484375 L 0 24.484375 Z M 0 22.644531 "/>
</g>
</svg>
